<?xml version="1.0" encoding="UTF-8"?>
<svg width="18px" height="18px" viewBox="0 0 18 18" version="1.1" xmlns="http://www.w3.org/2000/svg" xmlns:xlink="http://www.w3.org/1999/xlink">
    <!-- Generator: Sketch 52.1 (67048) - http://www.bohemiancoding.com/sketch -->
    <title>icon/buyer</title>
    <desc>Created with Sketch.</desc>
    <g id="icon/buyer" stroke="none" stroke-width="1" fill="none" fill-rule="evenodd">
        <g id="arrow-circle-up-copy" transform="translate(9.000000, 9.000000) rotate(-180.000000) translate(-9.000000, -9.000000) " fill="#5347BE" fill-rule="nonzero">
            <path d="M9,18 C13.9717742,18 18,13.9717742 18,9 C18,4.02822581 13.9717742,0 9,0 C4.02822581,0 0,4.02822581 0,9 C0,13.9717742 4.02822581,18 9,18 Z M1.16129032,9 C1.16129032,4.69233871 4.64879032,1.16129032 9,1.16129032 C13.3076613,1.16129032 16.8387097,4.64879032 16.8387097,9 C16.8387097,13.3076613 13.3512097,16.8387097 9,16.8387097 C4.69233871,16.8387097 1.16129032,13.3512097 1.16129032,9 Z M4.51814516,8.54637097 L8.69153226,4.36935484 C8.86209677,4.19879032 9.13790323,4.19879032 9.30846774,4.36935484 L13.4818548,8.54637097 C13.6524194,8.71693548 13.6524194,8.99274194 13.4818548,9.16330645 L13.2314516,9.41370968 C13.0608871,9.58427419 12.7778226,9.58427419 12.6108871,9.40645161 L9.61693548,6.30362903 L9.61693548,13.2096774 C9.61693548,13.4491935 9.42096774,13.6451613 9.18145161,13.6451613 L8.81854839,13.6451613 C8.57903226,13.6451613 8.38306452,13.4491935 8.38306452,13.2096774 L8.38306452,6.30362903 L5.3891129,9.41008065 C5.21854839,9.58427419 4.9391129,9.58790323 4.76854839,9.41733871 L4.51814516,9.16693548 C4.34758065,8.99274194 4.34758065,8.71693548 4.51814516,8.54637097 Z" id="Shape"></path>
        </g>
    </g>
</svg>