<?xml version="1.0" encoding="UTF-8"?>
<svg width="36px" height="36px" viewBox="0 0 36 36" version="1.1" xmlns="http://www.w3.org/2000/svg" xmlns:xlink="http://www.w3.org/1999/xlink">
    <!-- Generator: Sketch 52.1 (67048) - http://www.bohemiancoding.com/sketch -->
    <title>Group</title>
    <desc>Created with Sketch.</desc>
    <g id="Page-1" stroke="none" stroke-width="1" fill="none" fill-rule="evenodd">
        <g id="eunomia-03" transform="translate(-150.000000, -123.000000)">
            <g id="Group-11" transform="translate(150.000000, 123.000000)">
                <g id="Group">
                    <g id="circle_icons/invoice" fill="#4ECDC4">
                        <g id="Group-65">
                            <g id="Path-2" opacity="0.24887" fill-rule="nonzero">
                                <circle id="Path" cx="18" cy="18" r="18"></circle>
                            </g>
                            <path d="M18.9876563,20.5108594 L17.3470313,20.03625 C17.1589063,19.9817578 17.0272917,19.7978906 17.0272917,19.5887109 C17.0272917,19.333125 17.2205208,19.125 17.4575,19.125 L18.4823438,19.125 C18.6485938,19.125 18.8090104,19.1703516 18.9497396,19.2557812 C19.0678646,19.3271484 19.2180729,19.3229297 19.3190625,19.2301172 L19.7474479,18.8360156 C19.8761458,18.7175391 19.8688542,18.5122266 19.7266667,18.4092187 C19.3948958,18.1691016 18.9945833,18.0305859 18.5829688,18.0101953 L18.5829688,17.15625 C18.5829688,17.0008594 18.4524479,16.875 18.2913021,16.875 L17.7079688,16.875 C17.5468229,16.875 17.4163021,17.0008594 17.4163021,17.15625 L17.4163021,18.0042187 C16.5551563,18.0263672 15.860625,18.7266797 15.860625,19.5887109 C15.860625,20.2907812 16.3338542,20.9179687 17.0119792,21.1141406 L18.6526042,21.58875 C18.8407292,21.6432422 18.9723438,21.8271094 18.9723438,22.0362891 C18.9723438,22.291875 18.7791146,22.5 18.5421354,22.5 L17.5172917,22.5 C17.3510417,22.5 17.190625,22.4546484 17.0498958,22.3692187 C16.9317708,22.2978516 16.7815625,22.3020703 16.6805729,22.3948828 L16.2521875,22.7889844 C16.1234896,22.9074609 16.1307813,23.1127734 16.2729688,23.2157812 C16.6047396,23.4558984 17.0050521,23.5944141 17.4166667,23.6148047 L17.4166667,24.46875 C17.4166667,24.6241406 17.5471875,24.75 17.7083333,24.75 L18.2916667,24.75 C18.4528125,24.75 18.5833333,24.6241406 18.5833333,24.46875 L18.5833333,23.6207812 C19.4444792,23.5986328 20.1390104,22.8986719 20.1390104,22.0362891 C20.1390104,21.3342187 19.6657813,20.7070312 18.9876563,20.5108594 Z M13.625,12.375 L17.7083333,12.375 C17.8694792,12.375 18,12.2491406 18,12.09375 L18,11.53125 C18,11.3758594 17.8694792,11.25 17.7083333,11.25 L13.625,11.25 C13.4638542,11.25 13.3333333,11.3758594 13.3333333,11.53125 L13.3333333,12.09375 C13.3333333,12.2491406 13.4638542,12.375 13.625,12.375 Z M18,14.34375 L18,13.78125 C18,13.6258594 17.8694792,13.5 17.7083333,13.5 L13.625,13.5 C13.4638542,13.5 13.3333333,13.6258594 13.3333333,13.78125 L13.3333333,14.34375 C13.3333333,14.4991406 13.4638542,14.625 13.625,14.625 L17.7083333,14.625 C17.8694792,14.625 18,14.4991406 18,14.34375 Z M24.4859375,12.4446094 L21.4278125,9.49570312 C21.0996875,9.17929688 20.6548958,9 20.1922396,9 L12.7496354,9 C11.7838542,9.00351563 11,9.759375 11,10.6906641 L11,25.3128516 C11,26.2441406 11.7838542,27 12.7496354,27 L23.2503646,27 C24.2161458,27 25,26.2441406 25,25.3128516 L25,13.6395703 C25,13.1934375 24.8140625,12.7610156 24.4859375,12.4446094 Z M20.3344271,10.1457422 C20.4365104,10.1703516 20.5276562,10.2195703 20.6042187,10.2933984 L23.6623437,13.2423047 C23.7389062,13.3161328 23.7899479,13.4040234 23.8154687,13.5024609 L20.3344271,13.5024609 L20.3344271,10.1457422 Z M23.8336979,25.3128516 C23.8336979,25.6222266 23.5711979,25.8753516 23.2503646,25.8753516 L12.7496354,25.8753516 C12.4288021,25.8753516 12.1663021,25.6222266 12.1663021,25.3128516 L12.1663021,10.6906641 C12.1663021,10.3812891 12.4288021,10.125 12.7496354,10.125 L19.1677604,10.125 L19.1677604,13.7837109 C19.1677604,14.2512891 19.5578646,14.625 20.0427604,14.625 L23.8336979,14.625 L23.8336979,25.3128516 Z" id="Shape" fill-rule="nonzero"></path>
                        </g>
                    </g>
                    <g id="file-invoice-dollar-copy" transform="translate(11.000000, 9.000000)"></g>
                </g>
            </g>
        </g>
    </g>
</svg>